solid poop
  facet normal -0.865894 -0.113997 -0.487065
    outer loop
      vertex 2.000000 0.000000 0.000000
      vertex 1.550000 0.000000 0.800000
      vertex 1.931852 0.517638 0.000000
    endloop
  endfacet
  facet normal -0.865894 -0.113997 -0.487065
    outer loop
      vertex 1.550000 0.000000 0.800000
      vertex 1.497185 0.401170 0.800000
      vertex 1.931852 0.517638 0.000000
    endloop
  endfacet
  facet normal -0.806885 -0.334223 -0.487065
    outer loop
      vertex 1.931852 0.517638 0.000000
      vertex 1.497185 0.401170 0.800000
      vertex 1.732051 1.000000 0.000000
    endloop
  endfacet
  facet normal -0.806885 -0.334223 -0.487065
    outer loop
      vertex 1.497185 0.401170 0.800000
      vertex 1.342339 0.775000 0.800000
      vertex 1.732051 1.000000 0.000000
    endloop
  endfacet
  facet normal -0.692887 -0.531671 -0.487065
    outer loop
      vertex 1.732051 1.000000 0.000000
      vertex 1.342339 0.775000 0.800000
      vertex 1.414214 1.414214 0.000000
    endloop
  endfacet
  facet normal -0.692887 -0.531671 -0.487065
    outer loop
      vertex 1.342339 0.775000 0.800000
      vertex 1.096016 1.096016 0.800000
      vertex 1.414214 1.414214 0.000000
    endloop
  endfacet
  facet normal -0.531671 -0.692887 -0.487065
    outer loop
      vertex 1.414214 1.414214 0.000000
      vertex 1.096016 1.096016 0.800000
      vertex 1.000000 1.732051 0.000000
    endloop
  endfacet
  facet normal -0.531671 -0.692887 -0.487065
    outer loop
      vertex 1.096016 1.096016 0.800000
      vertex 0.775000 1.342339 0.800000
      vertex 1.000000 1.732051 0.000000
    endloop
  endfacet
  facet normal -0.334223 -0.806885 -0.487065
    outer loop
      vertex 1.000000 1.732051 0.000000
      vertex 0.775000 1.342339 0.800000
      vertex 0.517638 1.931852 0.000000
    endloop
  endfacet
  facet normal -0.334223 -0.806885 -0.487065
    outer loop
      vertex 0.775000 1.342339 0.800000
      vertex 0.401170 1.497185 0.800000
      vertex 0.517638 1.931852 0.000000
    endloop
  endfacet
  facet normal -0.113997 -0.865894 -0.487065
    outer loop
      vertex 0.517638 1.931852 0.000000
      vertex 0.401170 1.497185 0.800000
      vertex 0.000000 2.000000 0.000000
    endloop
  endfacet
  facet normal -0.113997 -0.865894 -0.487065
    outer loop
      vertex 0.401170 1.497185 0.800000
      vertex 0.000000 1.550000 0.800000
      vertex 0.000000 2.000000 0.000000
    endloop
  endfacet
  facet normal 0.113997 -0.865894 -0.487065
    outer loop
      vertex 0.000000 2.000000 0.000000
      vertex 0.000000 1.550000 0.800000
      vertex -0.517638 1.931852 0.000000
    endloop
  endfacet
  facet normal 0.113997 -0.865894 -0.487065
    outer loop
      vertex 0.000000 1.550000 0.800000
      vertex -0.401170 1.497185 0.800000
      vertex -0.517638 1.931852 0.000000
    endloop
  endfacet
  facet normal 0.334223 -0.806885 -0.487065
    outer loop
      vertex -0.517638 1.931852 0.000000
      vertex -0.401170 1.497185 0.800000
      vertex -1.000000 1.732051 0.000000
    endloop
  endfacet
  facet normal 0.334223 -0.806885 -0.487065
    outer loop
      vertex -0.401170 1.497185 0.800000
      vertex -0.775000 1.342339 0.800000
      vertex -1.000000 1.732051 0.000000
    endloop
  endfacet
  facet normal 0.531671 -0.692887 -0.487065
    outer loop
      vertex -1.000000 1.732051 0.000000
      vertex -0.775000 1.342339 0.800000
      vertex -1.414214 1.414214 0.000000
    endloop
  endfacet
  facet normal 0.531671 -0.692887 -0.487065
    outer loop
      vertex -0.775000 1.342339 0.800000
      vertex -1.096016 1.096016 0.800000
      vertex -1.414214 1.414214 0.000000
    endloop
  endfacet
  facet normal 0.692887 -0.531671 -0.487065
    outer loop
      vertex -1.414214 1.414214 0.000000
      vertex -1.096016 1.096016 0.800000
      vertex -1.732051 1.000000 0.000000
    endloop
  endfacet
  facet normal 0.692887 -0.531671 -0.487065
    outer loop
      vertex -1.096016 1.096016 0.800000
      vertex -1.342339 0.775000 0.800000
      vertex -1.732051 1.000000 0.000000
    endloop
  endfacet
  facet normal 0.806885 -0.334223 -0.487065
    outer loop
      vertex -1.732051 1.000000 0.000000
      vertex -1.342339 0.775000 0.800000
      vertex -1.931852 0.517638 0.000000
    endloop
  endfacet
  facet normal 0.806885 -0.334223 -0.487065
    outer loop
      vertex -1.342339 0.775000 0.800000
      vertex -1.497185 0.401170 0.800000
      vertex -1.931852 0.517638 0.000000
    endloop
  endfacet
  facet normal 0.865894 -0.113997 -0.487065
    outer loop
      vertex -1.931852 0.517638 0.000000
      vertex -1.497185 0.401170 0.800000
      vertex -2.000000 0.000000 0.000000
    endloop
  endfacet
  facet normal 0.865894 -0.113997 -0.487065
    outer loop
      vertex -1.497185 0.401170 0.800000
      vertex -1.550000 0.000000 0.800000
      vertex -2.000000 0.000000 0.000000
    endloop
  endfacet
  facet normal 0.865894 0.113997 -0.487065
    outer loop
      vertex -2.000000 0.000000 0.000000
      vertex -1.550000 0.000000 0.800000
      vertex -1.931852 -0.517638 0.000000
    endloop
  endfacet
  facet normal 0.865894 0.113997 -0.487065
    outer loop
      vertex -1.550000 0.000000 0.800000
      vertex -1.497185 -0.401170 0.800000
      vertex -1.931852 -0.517638 0.000000
    endloop
  endfacet
  facet normal 0.806885 0.334223 -0.487065
    outer loop
      vertex -1.931852 -0.517638 0.000000
      vertex -1.497185 -0.401170 0.800000
      vertex -1.732051 -1.000000 0.000000
    endloop
  endfacet
  facet normal 0.806885 0.334223 -0.487065
    outer loop
      vertex -1.497185 -0.401170 0.800000
      vertex -1.342339 -0.775000 0.800000
      vertex -1.732051 -1.000000 0.000000
    endloop
  endfacet
  facet normal 0.692887 0.531671 -0.487065
    outer loop
      vertex -1.732051 -1.000000 0.000000
      vertex -1.342339 -0.775000 0.800000
      vertex -1.414214 -1.414214 0.000000
    endloop
  endfacet
  facet normal 0.692887 0.531671 -0.487065
    outer loop
      vertex -1.342339 -0.775000 0.800000
      vertex -1.096016 -1.096016 0.800000
      vertex -1.414214 -1.414214 0.000000
    endloop
  endfacet
  facet normal 0.531671 0.692887 -0.487065
    outer loop
      vertex -1.414214 -1.414214 0.000000
      vertex -1.096016 -1.096016 0.800000
      vertex -1.000000 -1.732051 0.000000
    endloop
  endfacet
  facet normal 0.531671 0.692887 -0.487065
    outer loop
      vertex -1.096016 -1.096016 0.800000
      vertex -0.775000 -1.342339 0.800000
      vertex -1.000000 -1.732051 0.000000
    endloop
  endfacet
  facet normal 0.334223 0.806885 -0.487065
    outer loop
      vertex -1.000000 -1.732051 0.000000
      vertex -0.775000 -1.342339 0.800000
      vertex -0.517638 -1.931852 0.000000
    endloop
  endfacet
  facet normal 0.334223 0.806885 -0.487065
    outer loop
      vertex -0.775000 -1.342339 0.800000
      vertex -0.401170 -1.497185 0.800000
      vertex -0.517638 -1.931852 0.000000
    endloop
  endfacet
  facet normal 0.113997 0.865894 -0.487065
    outer loop
      vertex -0.517638 -1.931852 0.000000
      vertex -0.401170 -1.497185 0.800000
      vertex -0.000000 -2.000000 0.000000
    endloop
  endfacet
  facet normal 0.113997 0.865894 -0.487065
    outer loop
      vertex -0.401170 -1.497185 0.800000
      vertex -0.000000 -1.550000 0.800000
      vertex -0.000000 -2.000000 0.000000
    endloop
  endfacet
  facet normal -0.113997 0.865894 -0.487065
    outer loop
      vertex -0.000000 -2.000000 0.000000
      vertex -0.000000 -1.550000 0.800000
      vertex 0.517638 -1.931852 0.000000
    endloop
  endfacet
  facet normal -0.113997 0.865894 -0.487065
    outer loop
      vertex -0.000000 -1.550000 0.800000
      vertex 0.401170 -1.497185 0.800000
      vertex 0.517638 -1.931852 0.000000
    endloop
  endfacet
  facet normal -0.334223 0.806885 -0.487065
    outer loop
      vertex 0.517638 -1.931852 0.000000
      vertex 0.401170 -1.497185 0.800000
      vertex 1.000000 -1.732051 0.000000
    endloop
  endfacet
  facet normal -0.334223 0.806885 -0.487065
    outer loop
      vertex 0.401170 -1.497185 0.800000
      vertex 0.775000 -1.342339 0.800000
      vertex 1.000000 -1.732051 0.000000
    endloop
  endfacet
  facet normal -0.531671 0.692887 -0.487065
    outer loop
      vertex 1.000000 -1.732051 0.000000
      vertex 0.775000 -1.342339 0.800000
      vertex 1.414214 -1.414214 0.000000
    endloop
  endfacet
  facet normal -0.531671 0.692887 -0.487065
    outer loop
      vertex 0.775000 -1.342339 0.800000
      vertex 1.096016 -1.096016 0.800000
      vertex 1.414214 -1.414214 0.000000
    endloop
  endfacet
  facet normal -0.692887 0.531671 -0.487065
    outer loop
      vertex 1.414214 -1.414214 0.000000
      vertex 1.096016 -1.096016 0.800000
      vertex 1.732051 -1.000000 0.000000
    endloop
  endfacet
  facet normal -0.692887 0.531671 -0.487065
    outer loop
      vertex 1.096016 -1.096016 0.800000
      vertex 1.342339 -0.775000 0.800000
      vertex 1.732051 -1.000000 0.000000
    endloop
  endfacet
  facet normal -0.806885 0.334223 -0.487065
    outer loop
      vertex 1.732051 -1.000000 0.000000
      vertex 1.342339 -0.775000 0.800000
      vertex 1.931852 -0.517638 0.000000
    endloop
  endfacet
  facet normal -0.806885 0.334223 -0.487065
    outer loop
      vertex 1.342339 -0.775000 0.800000
      vertex 1.497185 -0.401170 0.800000
      vertex 1.931852 -0.517638 0.000000
    endloop
  endfacet
  facet normal -0.865894 0.113997 -0.487065
    outer loop
      vertex 1.931852 -0.517638 0.000000
      vertex 1.497185 -0.401170 0.800000
      vertex 2.000000 -0.000000 0.000000
    endloop
  endfacet
  facet normal -0.865894 0.113997 -0.487065
    outer loop
      vertex 1.497185 -0.401170 0.800000
      vertex 1.550000 -0.000000 0.800000
      vertex 2.000000 -0.000000 0.000000
    endloop
  endfacet
  facet normal -0.888290 -0.116946 -0.444145
    outer loop
      vertex 1.550000 0.000000 0.800000
      vertex 1.150000 0.000000 1.600000
      vertex 1.497185 0.401170 0.800000
    endloop
  endfacet
  facet normal -0.888290 -0.116946 -0.444145
    outer loop
      vertex 1.150000 0.000000 1.600000
      vertex 1.110815 0.297642 1.600000
      vertex 1.497185 0.401170 0.800000
    endloop
  endfacet
  facet normal -0.827754 -0.342867 -0.444145
    outer loop
      vertex 1.497185 0.401170 0.800000
      vertex 1.110815 0.297642 1.600000
      vertex 1.342339 0.775000 0.800000
    endloop
  endfacet
  facet normal -0.827754 -0.342867 -0.444145
    outer loop
      vertex 1.110815 0.297642 1.600000
      vertex 0.995929 0.575000 1.600000
      vertex 1.342339 0.775000 0.800000
    endloop
  endfacet
  facet normal -0.710809 -0.545423 -0.444145
    outer loop
      vertex 1.342339 0.775000 0.800000
      vertex 0.995929 0.575000 1.600000
      vertex 1.096016 1.096016 0.800000
    endloop
  endfacet
  facet normal -0.710809 -0.545423 -0.444145
    outer loop
      vertex 0.995929 0.575000 1.600000
      vertex 0.813173 0.813173 1.600000
      vertex 1.096016 1.096016 0.800000
    endloop
  endfacet
  facet normal -0.545423 -0.710809 -0.444145
    outer loop
      vertex 1.096016 1.096016 0.800000
      vertex 0.813173 0.813173 1.600000
      vertex 0.775000 1.342339 0.800000
    endloop
  endfacet
  facet normal -0.545423 -0.710809 -0.444145
    outer loop
      vertex 0.813173 0.813173 1.600000
      vertex 0.575000 0.995929 1.600000
      vertex 0.775000 1.342339 0.800000
    endloop
  endfacet
  facet normal -0.342867 -0.827754 -0.444145
    outer loop
      vertex 0.775000 1.342339 0.800000
      vertex 0.575000 0.995929 1.600000
      vertex 0.401170 1.497185 0.800000
    endloop
  endfacet
  facet normal -0.342867 -0.827754 -0.444145
    outer loop
      vertex 0.575000 0.995929 1.600000
      vertex 0.297642 1.110815 1.600000
      vertex 0.401170 1.497185 0.800000
    endloop
  endfacet
  facet normal -0.116946 -0.888290 -0.444145
    outer loop
      vertex 0.401170 1.497185 0.800000
      vertex 0.297642 1.110815 1.600000
      vertex 0.000000 1.550000 0.800000
    endloop
  endfacet
  facet normal -0.116946 -0.888290 -0.444145
    outer loop
      vertex 0.297642 1.110815 1.600000
      vertex 0.000000 1.150000 1.600000
      vertex 0.000000 1.550000 0.800000
    endloop
  endfacet
  facet normal 0.116946 -0.888290 -0.444145
    outer loop
      vertex 0.000000 1.550000 0.800000
      vertex 0.000000 1.150000 1.600000
      vertex -0.401170 1.497185 0.800000
    endloop
  endfacet
  facet normal 0.116946 -0.888290 -0.444145
    outer loop
      vertex 0.000000 1.150000 1.600000
      vertex -0.297642 1.110815 1.600000
      vertex -0.401170 1.497185 0.800000
    endloop
  endfacet
  facet normal 0.342867 -0.827754 -0.444145
    outer loop
      vertex -0.401170 1.497185 0.800000
      vertex -0.297642 1.110815 1.600000
      vertex -0.775000 1.342339 0.800000
    endloop
  endfacet
  facet normal 0.342867 -0.827754 -0.444145
    outer loop
      vertex -0.297642 1.110815 1.600000
      vertex -0.575000 0.995929 1.600000
      vertex -0.775000 1.342339 0.800000
    endloop
  endfacet
  facet normal 0.545423 -0.710809 -0.444145
    outer loop
      vertex -0.775000 1.342339 0.800000
      vertex -0.575000 0.995929 1.600000
      vertex -1.096016 1.096016 0.800000
    endloop
  endfacet
  facet normal 0.545423 -0.710809 -0.444145
    outer loop
      vertex -0.575000 0.995929 1.600000
      vertex -0.813173 0.813173 1.600000
      vertex -1.096016 1.096016 0.800000
    endloop
  endfacet
  facet normal 0.710809 -0.545423 -0.444145
    outer loop
      vertex -1.096016 1.096016 0.800000
      vertex -0.813173 0.813173 1.600000
      vertex -1.342339 0.775000 0.800000
    endloop
  endfacet
  facet normal 0.710809 -0.545423 -0.444145
    outer loop
      vertex -0.813173 0.813173 1.600000
      vertex -0.995929 0.575000 1.600000
      vertex -1.342339 0.775000 0.800000
    endloop
  endfacet
  facet normal 0.827754 -0.342867 -0.444145
    outer loop
      vertex -1.342339 0.775000 0.800000
      vertex -0.995929 0.575000 1.600000
      vertex -1.497185 0.401170 0.800000
    endloop
  endfacet
  facet normal 0.827754 -0.342867 -0.444145
    outer loop
      vertex -0.995929 0.575000 1.600000
      vertex -1.110815 0.297642 1.600000
      vertex -1.497185 0.401170 0.800000
    endloop
  endfacet
  facet normal 0.888290 -0.116946 -0.444145
    outer loop
      vertex -1.497185 0.401170 0.800000
      vertex -1.110815 0.297642 1.600000
      vertex -1.550000 0.000000 0.800000
    endloop
  endfacet
  facet normal 0.888290 -0.116946 -0.444145
    outer loop
      vertex -1.110815 0.297642 1.600000
      vertex -1.150000 0.000000 1.600000
      vertex -1.550000 0.000000 0.800000
    endloop
  endfacet
  facet normal 0.888290 0.116946 -0.444145
    outer loop
      vertex -1.550000 0.000000 0.800000
      vertex -1.150000 0.000000 1.600000
      vertex -1.497185 -0.401170 0.800000
    endloop
  endfacet
  facet normal 0.888290 0.116946 -0.444145
    outer loop
      vertex -1.150000 0.000000 1.600000
      vertex -1.110815 -0.297642 1.600000
      vertex -1.497185 -0.401170 0.800000
    endloop
  endfacet
  facet normal 0.827754 0.342867 -0.444145
    outer loop
      vertex -1.497185 -0.401170 0.800000
      vertex -1.110815 -0.297642 1.600000
      vertex -1.342339 -0.775000 0.800000
    endloop
  endfacet
  facet normal 0.827754 0.342867 -0.444145
    outer loop
      vertex -1.110815 -0.297642 1.600000
      vertex -0.995929 -0.575000 1.600000
      vertex -1.342339 -0.775000 0.800000
    endloop
  endfacet
  facet normal 0.710809 0.545423 -0.444145
    outer loop
      vertex -1.342339 -0.775000 0.800000
      vertex -0.995929 -0.575000 1.600000
      vertex -1.096016 -1.096016 0.800000
    endloop
  endfacet
  facet normal 0.710809 0.545423 -0.444145
    outer loop
      vertex -0.995929 -0.575000 1.600000
      vertex -0.813173 -0.813173 1.600000
      vertex -1.096016 -1.096016 0.800000
    endloop
  endfacet
  facet normal 0.545423 0.710809 -0.444145
    outer loop
      vertex -1.096016 -1.096016 0.800000
      vertex -0.813173 -0.813173 1.600000
      vertex -0.775000 -1.342339 0.800000
    endloop
  endfacet
  facet normal 0.545423 0.710809 -0.444145
    outer loop
      vertex -0.813173 -0.813173 1.600000
      vertex -0.575000 -0.995929 1.600000
      vertex -0.775000 -1.342339 0.800000
    endloop
  endfacet
  facet normal 0.342867 0.827754 -0.444145
    outer loop
      vertex -0.775000 -1.342339 0.800000
      vertex -0.575000 -0.995929 1.600000
      vertex -0.401170 -1.497185 0.800000
    endloop
  endfacet
  facet normal 0.342867 0.827754 -0.444145
    outer loop
      vertex -0.575000 -0.995929 1.600000
      vertex -0.297642 -1.110815 1.600000
      vertex -0.401170 -1.497185 0.800000
    endloop
  endfacet
  facet normal 0.116946 0.888290 -0.444145
    outer loop
      vertex -0.401170 -1.497185 0.800000
      vertex -0.297642 -1.110815 1.600000
      vertex -0.000000 -1.550000 0.800000
    endloop
  endfacet
  facet normal 0.116946 0.888290 -0.444145
    outer loop
      vertex -0.297642 -1.110815 1.600000
      vertex -0.000000 -1.150000 1.600000
      vertex -0.000000 -1.550000 0.800000
    endloop
  endfacet
  facet normal -0.116946 0.888290 -0.444145
    outer loop
      vertex -0.000000 -1.550000 0.800000
      vertex -0.000000 -1.150000 1.600000
      vertex 0.401170 -1.497185 0.800000
    endloop
  endfacet
  facet normal -0.116946 0.888290 -0.444145
    outer loop
      vertex -0.000000 -1.150000 1.600000
      vertex 0.297642 -1.110815 1.600000
      vertex 0.401170 -1.497185 0.800000
    endloop
  endfacet
  facet normal -0.342867 0.827754 -0.444145
    outer loop
      vertex 0.401170 -1.497185 0.800000
      vertex 0.297642 -1.110815 1.600000
      vertex 0.775000 -1.342339 0.800000
    endloop
  endfacet
  facet normal -0.342867 0.827754 -0.444145
    outer loop
      vertex 0.297642 -1.110815 1.600000
      vertex 0.575000 -0.995929 1.600000
      vertex 0.775000 -1.342339 0.800000
    endloop
  endfacet
  facet normal -0.545423 0.710809 -0.444145
    outer loop
      vertex 0.775000 -1.342339 0.800000
      vertex 0.575000 -0.995929 1.600000
      vertex 1.096016 -1.096016 0.800000
    endloop
  endfacet
  facet normal -0.545423 0.710809 -0.444145
    outer loop
      vertex 0.575000 -0.995929 1.600000
      vertex 0.813173 -0.813173 1.600000
      vertex 1.096016 -1.096016 0.800000
    endloop
  endfacet
  facet normal -0.710809 0.545423 -0.444145
    outer loop
      vertex 1.096016 -1.096016 0.800000
      vertex 0.813173 -0.813173 1.600000
      vertex 1.342339 -0.775000 0.800000
    endloop
  endfacet
  facet normal -0.710809 0.545423 -0.444145
    outer loop
      vertex 0.813173 -0.813173 1.600000
      vertex 0.995929 -0.575000 1.600000
      vertex 1.342339 -0.775000 0.800000
    endloop
  endfacet
  facet normal -0.827754 0.342867 -0.444145
    outer loop
      vertex 1.342339 -0.775000 0.800000
      vertex 0.995929 -0.575000 1.600000
      vertex 1.497185 -0.401170 0.800000
    endloop
  endfacet
  facet normal -0.827754 0.342867 -0.444145
    outer loop
      vertex 0.995929 -0.575000 1.600000
      vertex 1.110815 -0.297642 1.600000
      vertex 1.497185 -0.401170 0.800000
    endloop
  endfacet
  facet normal -0.888290 0.116946 -0.444145
    outer loop
      vertex 1.497185 -0.401170 0.800000
      vertex 1.110815 -0.297642 1.600000
      vertex 1.550000 -0.000000 0.800000
    endloop
  endfacet
  facet normal -0.888290 0.116946 -0.444145
    outer loop
      vertex 1.110815 -0.297642 1.600000
      vertex 1.150000 -0.000000 1.600000
      vertex 1.550000 -0.000000 0.800000
    endloop
  endfacet
  facet normal -0.909565 -0.119747 -0.397935
    outer loop
      vertex 1.150000 0.000000 1.600000
      vertex 0.800000 0.000000 2.400000
      vertex 1.110815 0.297642 1.600000
    endloop
  endfacet
  facet normal -0.909565 -0.119747 -0.397935
    outer loop
      vertex 0.800000 0.000000 2.400000
      vertex 0.772741 0.207055 2.400000
      vertex 1.110815 0.297642 1.600000
    endloop
  endfacet
  facet normal -0.847580 -0.351079 -0.397935
    outer loop
      vertex 1.110815 0.297642 1.600000
      vertex 0.772741 0.207055 2.400000
      vertex 0.995929 0.575000 1.600000
    endloop
  endfacet
  facet normal -0.847580 -0.351079 -0.397935
    outer loop
      vertex 0.772741 0.207055 2.400000
      vertex 0.692820 0.400000 2.400000
      vertex 0.995929 0.575000 1.600000
    endloop
  endfacet
  facet normal -0.727833 -0.558486 -0.397935
    outer loop
      vertex 0.995929 0.575000 1.600000
      vertex 0.692820 0.400000 2.400000
      vertex 0.813173 0.813173 1.600000
    endloop
  endfacet
  facet normal -0.727833 -0.558486 -0.397935
    outer loop
      vertex 0.692820 0.400000 2.400000
      vertex 0.565685 0.565685 2.400000
      vertex 0.813173 0.813173 1.600000
    endloop
  endfacet
  facet normal -0.558486 -0.727833 -0.397935
    outer loop
      vertex 0.813173 0.813173 1.600000
      vertex 0.565685 0.565685 2.400000
      vertex 0.575000 0.995929 1.600000
    endloop
  endfacet
  facet normal -0.558486 -0.727833 -0.397935
    outer loop
      vertex 0.565685 0.565685 2.400000
      vertex 0.400000 0.692820 2.400000
      vertex 0.575000 0.995929 1.600000
    endloop
  endfacet
  facet normal -0.351079 -0.847580 -0.397935
    outer loop
      vertex 0.575000 0.995929 1.600000
      vertex 0.400000 0.692820 2.400000
      vertex 0.297642 1.110815 1.600000
    endloop
  endfacet
  facet normal -0.351079 -0.847580 -0.397935
    outer loop
      vertex 0.400000 0.692820 2.400000
      vertex 0.207055 0.772741 2.400000
      vertex 0.297642 1.110815 1.600000
    endloop
  endfacet
  facet normal -0.119747 -0.909565 -0.397935
    outer loop
      vertex 0.297642 1.110815 1.600000
      vertex 0.207055 0.772741 2.400000
      vertex 0.000000 1.150000 1.600000
    endloop
  endfacet
  facet normal -0.119747 -0.909565 -0.397935
    outer loop
      vertex 0.207055 0.772741 2.400000
      vertex 0.000000 0.800000 2.400000
      vertex 0.000000 1.150000 1.600000
    endloop
  endfacet
  facet normal 0.119747 -0.909565 -0.397935
    outer loop
      vertex 0.000000 1.150000 1.600000
      vertex 0.000000 0.800000 2.400000
      vertex -0.297642 1.110815 1.600000
    endloop
  endfacet
  facet normal 0.119747 -0.909565 -0.397935
    outer loop
      vertex 0.000000 0.800000 2.400000
      vertex -0.207055 0.772741 2.400000
      vertex -0.297642 1.110815 1.600000
    endloop
  endfacet
  facet normal 0.351079 -0.847580 -0.397935
    outer loop
      vertex -0.297642 1.110815 1.600000
      vertex -0.207055 0.772741 2.400000
      vertex -0.575000 0.995929 1.600000
    endloop
  endfacet
  facet normal 0.351079 -0.847580 -0.397935
    outer loop
      vertex -0.207055 0.772741 2.400000
      vertex -0.400000 0.692820 2.400000
      vertex -0.575000 0.995929 1.600000
    endloop
  endfacet
  facet normal 0.558486 -0.727833 -0.397935
    outer loop
      vertex -0.575000 0.995929 1.600000
      vertex -0.400000 0.692820 2.400000
      vertex -0.813173 0.813173 1.600000
    endloop
  endfacet
  facet normal 0.558486 -0.727833 -0.397935
    outer loop
      vertex -0.400000 0.692820 2.400000
      vertex -0.565685 0.565685 2.400000
      vertex -0.813173 0.813173 1.600000
    endloop
  endfacet
  facet normal 0.727833 -0.558486 -0.397935
    outer loop
      vertex -0.813173 0.813173 1.600000
      vertex -0.565685 0.565685 2.400000
      vertex -0.995929 0.575000 1.600000
    endloop
  endfacet
  facet normal 0.727833 -0.558486 -0.397935
    outer loop
      vertex -0.565685 0.565685 2.400000
      vertex -0.692820 0.400000 2.400000
      vertex -0.995929 0.575000 1.600000
    endloop
  endfacet
  facet normal 0.847580 -0.351079 -0.397935
    outer loop
      vertex -0.995929 0.575000 1.600000
      vertex -0.692820 0.400000 2.400000
      vertex -1.110815 0.297642 1.600000
    endloop
  endfacet
  facet normal 0.847580 -0.351079 -0.397935
    outer loop
      vertex -0.692820 0.400000 2.400000
      vertex -0.772741 0.207055 2.400000
      vertex -1.110815 0.297642 1.600000
    endloop
  endfacet
  facet normal 0.909565 -0.119747 -0.397935
    outer loop
      vertex -1.110815 0.297642 1.600000
      vertex -0.772741 0.207055 2.400000
      vertex -1.150000 0.000000 1.600000
    endloop
  endfacet
  facet normal 0.909565 -0.119747 -0.397935
    outer loop
      vertex -0.772741 0.207055 2.400000
      vertex -0.800000 0.000000 2.400000
      vertex -1.150000 0.000000 1.600000
    endloop
  endfacet
  facet normal 0.909565 0.119747 -0.397935
    outer loop
      vertex -1.150000 0.000000 1.600000
      vertex -0.800000 0.000000 2.400000
      vertex -1.110815 -0.297642 1.600000
    endloop
  endfacet
  facet normal 0.909565 0.119747 -0.397935
    outer loop
      vertex -0.800000 0.000000 2.400000
      vertex -0.772741 -0.207055 2.400000
      vertex -1.110815 -0.297642 1.600000
    endloop
  endfacet
  facet normal 0.847580 0.351079 -0.397935
    outer loop
      vertex -1.110815 -0.297642 1.600000
      vertex -0.772741 -0.207055 2.400000
      vertex -0.995929 -0.575000 1.600000
    endloop
  endfacet
  facet normal 0.847580 0.351079 -0.397935
    outer loop
      vertex -0.772741 -0.207055 2.400000
      vertex -0.692820 -0.400000 2.400000
      vertex -0.995929 -0.575000 1.600000
    endloop
  endfacet
  facet normal 0.727833 0.558486 -0.397935
    outer loop
      vertex -0.995929 -0.575000 1.600000
      vertex -0.692820 -0.400000 2.400000
      vertex -0.813173 -0.813173 1.600000
    endloop
  endfacet
  facet normal 0.727833 0.558486 -0.397935
    outer loop
      vertex -0.692820 -0.400000 2.400000
      vertex -0.565685 -0.565685 2.400000
      vertex -0.813173 -0.813173 1.600000
    endloop
  endfacet
  facet normal 0.558486 0.727833 -0.397935
    outer loop
      vertex -0.813173 -0.813173 1.600000
      vertex -0.565685 -0.565685 2.400000
      vertex -0.575000 -0.995929 1.600000
    endloop
  endfacet
  facet normal 0.558486 0.727833 -0.397935
    outer loop
      vertex -0.565685 -0.565685 2.400000
      vertex -0.400000 -0.692820 2.400000
      vertex -0.575000 -0.995929 1.600000
    endloop
  endfacet
  facet normal 0.351079 0.847580 -0.397935
    outer loop
      vertex -0.575000 -0.995929 1.600000
      vertex -0.400000 -0.692820 2.400000
      vertex -0.297642 -1.110815 1.600000
    endloop
  endfacet
  facet normal 0.351079 0.847580 -0.397935
    outer loop
      vertex -0.400000 -0.692820 2.400000
      vertex -0.207055 -0.772741 2.400000
      vertex -0.297642 -1.110815 1.600000
    endloop
  endfacet
  facet normal 0.119747 0.909565 -0.397935
    outer loop
      vertex -0.297642 -1.110815 1.600000
      vertex -0.207055 -0.772741 2.400000
      vertex -0.000000 -1.150000 1.600000
    endloop
  endfacet
  facet normal 0.119747 0.909565 -0.397935
    outer loop
      vertex -0.207055 -0.772741 2.400000
      vertex -0.000000 -0.800000 2.400000
      vertex -0.000000 -1.150000 1.600000
    endloop
  endfacet
  facet normal -0.119747 0.909565 -0.397935
    outer loop
      vertex -0.000000 -1.150000 1.600000
      vertex -0.000000 -0.800000 2.400000
      vertex 0.297642 -1.110815 1.600000
    endloop
  endfacet
  facet normal -0.119747 0.909565 -0.397935
    outer loop
      vertex -0.000000 -0.800000 2.400000
      vertex 0.207055 -0.772741 2.400000
      vertex 0.297642 -1.110815 1.600000
    endloop
  endfacet
  facet normal -0.351079 0.847580 -0.397935
    outer loop
      vertex 0.297642 -1.110815 1.600000
      vertex 0.207055 -0.772741 2.400000
      vertex 0.575000 -0.995929 1.600000
    endloop
  endfacet
  facet normal -0.351079 0.847580 -0.397935
    outer loop
      vertex 0.207055 -0.772741 2.400000
      vertex 0.400000 -0.692820 2.400000
      vertex 0.575000 -0.995929 1.600000
    endloop
  endfacet
  facet normal -0.558486 0.727833 -0.397935
    outer loop
      vertex 0.575000 -0.995929 1.600000
      vertex 0.400000 -0.692820 2.400000
      vertex 0.813173 -0.813173 1.600000
    endloop
  endfacet
  facet normal -0.558486 0.727833 -0.397935
    outer loop
      vertex 0.400000 -0.692820 2.400000
      vertex 0.565685 -0.565685 2.400000
      vertex 0.813173 -0.813173 1.600000
    endloop
  endfacet
  facet normal -0.727833 0.558486 -0.397935
    outer loop
      vertex 0.813173 -0.813173 1.600000
      vertex 0.565685 -0.565685 2.400000
      vertex 0.995929 -0.575000 1.600000
    endloop
  endfacet
  facet normal -0.727833 0.558486 -0.397935
    outer loop
      vertex 0.565685 -0.565685 2.400000
      vertex 0.692820 -0.400000 2.400000
      vertex 0.995929 -0.575000 1.600000
    endloop
  endfacet
  facet normal -0.847580 0.351079 -0.397935
    outer loop
      vertex 0.995929 -0.575000 1.600000
      vertex 0.692820 -0.400000 2.400000
      vertex 1.110815 -0.297642 1.600000
    endloop
  endfacet
  facet normal -0.847580 0.351079 -0.397935
    outer loop
      vertex 0.692820 -0.400000 2.400000
      vertex 0.772741 -0.207055 2.400000
      vertex 1.110815 -0.297642 1.600000
    endloop
  endfacet
  facet normal -0.909565 0.119747 -0.397935
    outer loop
      vertex 1.110815 -0.297642 1.600000
      vertex 0.772741 -0.207055 2.400000
      vertex 1.150000 -0.000000 1.600000
    endloop
  endfacet
  facet normal -0.909565 0.119747 -0.397935
    outer loop
      vertex 0.772741 -0.207055 2.400000
      vertex 0.800000 -0.000000 2.400000
      vertex 1.150000 -0.000000 1.600000
    endloop
  endfacet
  facet normal -0.704063 -0.092692 -0.704063
    outer loop
      vertex 0.800000 0.000000 2.400000
      vertex 0.000000 0.000000 3.200000
      vertex 0.772741 0.207055 2.400000
    endloop
  endfacet
  facet normal -0.656082 -0.271758 -0.704063
    outer loop
      vertex 0.772741 0.207055 2.400000
      vertex 0.000000 0.000000 3.200000
      vertex 0.692820 0.400000 2.400000
    endloop
  endfacet
  facet normal -0.563390 -0.432305 -0.704063
    outer loop
      vertex 0.692820 0.400000 2.400000
      vertex 0.000000 0.000000 3.200000
      vertex 0.565685 0.565685 2.400000
    endloop
  endfacet
  facet normal -0.432305 -0.563390 -0.704063
    outer loop
      vertex 0.565685 0.565685 2.400000
      vertex 0.000000 0.000000 3.200000
      vertex 0.400000 0.692820 2.400000
    endloop
  endfacet
  facet normal -0.271758 -0.656082 -0.704063
    outer loop
      vertex 0.400000 0.692820 2.400000
      vertex 0.000000 0.000000 3.200000
      vertex 0.207055 0.772741 2.400000
    endloop
  endfacet
  facet normal -0.092692 -0.704063 -0.704063
    outer loop
      vertex 0.207055 0.772741 2.400000
      vertex 0.000000 0.000000 3.200000
      vertex 0.000000 0.800000 2.400000
    endloop
  endfacet
  facet normal 0.092692 -0.704063 -0.704063
    outer loop
      vertex 0.000000 0.800000 2.400000
      vertex 0.000000 0.000000 3.200000
      vertex -0.207055 0.772741 2.400000
    endloop
  endfacet
  facet normal 0.271758 -0.656082 -0.704063
    outer loop
      vertex -0.207055 0.772741 2.400000
      vertex 0.000000 0.000000 3.200000
      vertex -0.400000 0.692820 2.400000
    endloop
  endfacet
  facet normal 0.432305 -0.563390 -0.704063
    outer loop
      vertex -0.400000 0.692820 2.400000
      vertex 0.000000 0.000000 3.200000
      vertex -0.565685 0.565685 2.400000
    endloop
  endfacet
  facet normal 0.563390 -0.432305 -0.704063
    outer loop
      vertex -0.565685 0.565685 2.400000
      vertex 0.000000 0.000000 3.200000
      vertex -0.692820 0.400000 2.400000
    endloop
  endfacet
  facet normal 0.656082 -0.271758 -0.704063
    outer loop
      vertex -0.692820 0.400000 2.400000
      vertex 0.000000 0.000000 3.200000
      vertex -0.772741 0.207055 2.400000
    endloop
  endfacet
  facet normal 0.704063 -0.092692 -0.704063
    outer loop
      vertex -0.772741 0.207055 2.400000
      vertex 0.000000 0.000000 3.200000
      vertex -0.800000 0.000000 2.400000
    endloop
  endfacet
  facet normal 0.704063 0.092692 -0.704063
    outer loop
      vertex -0.800000 0.000000 2.400000
      vertex 0.000000 0.000000 3.200000
      vertex -0.772741 -0.207055 2.400000
    endloop
  endfacet
  facet normal 0.656082 0.271758 -0.704063
    outer loop
      vertex -0.772741 -0.207055 2.400000
      vertex 0.000000 0.000000 3.200000
      vertex -0.692820 -0.400000 2.400000
    endloop
  endfacet
  facet normal 0.563390 0.432305 -0.704063
    outer loop
      vertex -0.692820 -0.400000 2.400000
      vertex 0.000000 0.000000 3.200000
      vertex -0.565685 -0.565685 2.400000
    endloop
  endfacet
  facet normal 0.432305 0.563390 -0.704063
    outer loop
      vertex -0.565685 -0.565685 2.400000
      vertex 0.000000 0.000000 3.200000
      vertex -0.400000 -0.692820 2.400000
    endloop
  endfacet
  facet normal 0.271758 0.656082 -0.704063
    outer loop
      vertex -0.400000 -0.692820 2.400000
      vertex 0.000000 0.000000 3.200000
      vertex -0.207055 -0.772741 2.400000
    endloop
  endfacet
  facet normal 0.092692 0.704063 -0.704063
    outer loop
      vertex -0.207055 -0.772741 2.400000
      vertex 0.000000 0.000000 3.200000
      vertex -0.000000 -0.800000 2.400000
    endloop
  endfacet
  facet normal -0.092692 0.704063 -0.704063
    outer loop
      vertex -0.000000 -0.800000 2.400000
      vertex 0.000000 0.000000 3.200000
      vertex 0.207055 -0.772741 2.400000
    endloop
  endfacet
  facet normal -0.271758 0.656082 -0.704063
    outer loop
      vertex 0.207055 -0.772741 2.400000
      vertex 0.000000 0.000000 3.200000
      vertex 0.400000 -0.692820 2.400000
    endloop
  endfacet
  facet normal -0.432305 0.563390 -0.704063
    outer loop
      vertex 0.400000 -0.692820 2.400000
      vertex 0.000000 0.000000 3.200000
      vertex 0.565685 -0.565685 2.400000
    endloop
  endfacet
  facet normal -0.563390 0.432305 -0.704063
    outer loop
      vertex 0.565685 -0.565685 2.400000
      vertex 0.000000 0.000000 3.200000
      vertex 0.692820 -0.400000 2.400000
    endloop
  endfacet
  facet normal -0.656082 0.271758 -0.704063
    outer loop
      vertex 0.692820 -0.400000 2.400000
      vertex 0.000000 0.000000 3.200000
      vertex 0.772741 -0.207055 2.400000
    endloop
  endfacet
  facet normal -0.704063 0.092692 -0.704063
    outer loop
      vertex 0.772741 -0.207055 2.400000
      vertex 0.000000 0.000000 3.200000
      vertex 0.800000 -0.000000 2.400000
    endloop
  endfacet
  facet normal 0.000000 0.000000 -1.000000
    outer loop
      vertex 2.000000 0.000000 0.000000
      vertex 0.000000 0.000000 0.000000
      vertex 1.931852 0.517638 0.000000
    endloop
  endfacet
  facet normal -0.000000 0.000000 -1.000000
    outer loop
      vertex 1.931852 0.517638 0.000000
      vertex 0.000000 0.000000 0.000000
      vertex 1.732051 1.000000 0.000000
    endloop
  endfacet
  facet normal -0.000000 0.000000 -1.000000
    outer loop
      vertex 1.732051 1.000000 0.000000
      vertex 0.000000 0.000000 0.000000
      vertex 1.414214 1.414214 0.000000
    endloop
  endfacet
  facet normal -0.000000 0.000000 -1.000000
    outer loop
      vertex 1.414214 1.414214 0.000000
      vertex 0.000000 0.000000 0.000000
      vertex 1.000000 1.732051 0.000000
    endloop
  endfacet
  facet normal -0.000000 0.000000 -1.000000
    outer loop
      vertex 1.000000 1.732051 0.000000
      vertex 0.000000 0.000000 0.000000
      vertex 0.517638 1.931852 0.000000
    endloop
  endfacet
  facet normal -0.000000 0.000000 -1.000000
    outer loop
      vertex 0.517638 1.931852 0.000000
      vertex 0.000000 0.000000 0.000000
      vertex 0.000000 2.000000 0.000000
    endloop
  endfacet
  facet normal 0.000000 0.000000 -1.000000
    outer loop
      vertex 0.000000 2.000000 0.000000
      vertex 0.000000 0.000000 0.000000
      vertex -0.517638 1.931852 0.000000
    endloop
  endfacet
  facet normal 0.000000 -0.000000 -1.000000
    outer loop
      vertex -0.517638 1.931852 0.000000
      vertex 0.000000 0.000000 0.000000
      vertex -1.000000 1.732051 0.000000
    endloop
  endfacet
  facet normal 0.000000 -0.000000 -1.000000
    outer loop
      vertex -1.000000 1.732051 0.000000
      vertex 0.000000 0.000000 0.000000
      vertex -1.414214 1.414214 0.000000
    endloop
  endfacet
  facet normal 0.000000 -0.000000 -1.000000
    outer loop
      vertex -1.414214 1.414214 0.000000
      vertex 0.000000 0.000000 0.000000
      vertex -1.732051 1.000000 0.000000
    endloop
  endfacet
  facet normal 0.000000 -0.000000 -1.000000
    outer loop
      vertex -1.732051 1.000000 0.000000
      vertex 0.000000 0.000000 0.000000
      vertex -1.931852 0.517638 0.000000
    endloop
  endfacet
  facet normal 0.000000 -0.000000 -1.000000
    outer loop
      vertex -1.931852 0.517638 0.000000
      vertex 0.000000 0.000000 0.000000
      vertex -2.000000 0.000000 0.000000
    endloop
  endfacet
  facet normal 0.000000 0.000000 -1.000000
    outer loop
      vertex -2.000000 0.000000 0.000000
      vertex 0.000000 0.000000 0.000000
      vertex -1.931852 -0.517638 0.000000
    endloop
  endfacet
  facet normal 0.000000 0.000000 -1.000000
    outer loop
      vertex -1.931852 -0.517638 0.000000
      vertex 0.000000 0.000000 0.000000
      vertex -1.732051 -1.000000 0.000000
    endloop
  endfacet
  facet normal 0.000000 0.000000 -1.000000
    outer loop
      vertex -1.732051 -1.000000 0.000000
      vertex 0.000000 0.000000 0.000000
      vertex -1.414214 -1.414214 0.000000
    endloop
  endfacet
  facet normal 0.000000 0.000000 -1.000000
    outer loop
      vertex -1.414214 -1.414214 0.000000
      vertex 0.000000 0.000000 0.000000
      vertex -1.000000 -1.732051 0.000000
    endloop
  endfacet
  facet normal 0.000000 0.000000 -1.000000
    outer loop
      vertex -1.000000 -1.732051 0.000000
      vertex 0.000000 0.000000 0.000000
      vertex -0.517638 -1.931852 0.000000
    endloop
  endfacet
  facet normal 0.000000 0.000000 -1.000000
    outer loop
      vertex -0.517638 -1.931852 0.000000
      vertex 0.000000 0.000000 0.000000
      vertex -0.000000 -2.000000 0.000000
    endloop
  endfacet
  facet normal 0.000000 0.000000 -1.000000
    outer loop
      vertex -0.000000 -2.000000 0.000000
      vertex 0.000000 0.000000 0.000000
      vertex 0.517638 -1.931852 0.000000
    endloop
  endfacet
  facet normal 0.000000 0.000000 -1.000000
    outer loop
      vertex 0.517638 -1.931852 0.000000
      vertex 0.000000 0.000000 0.000000
      vertex 1.000000 -1.732051 0.000000
    endloop
  endfacet
  facet normal 0.000000 0.000000 -1.000000
    outer loop
      vertex 1.000000 -1.732051 0.000000
      vertex 0.000000 0.000000 0.000000
      vertex 1.414214 -1.414214 0.000000
    endloop
  endfacet
  facet normal 0.000000 0.000000 -1.000000
    outer loop
      vertex 1.414214 -1.414214 0.000000
      vertex 0.000000 0.000000 0.000000
      vertex 1.732051 -1.000000 0.000000
    endloop
  endfacet
  facet normal 0.000000 0.000000 -1.000000
    outer loop
      vertex 1.732051 -1.000000 0.000000
      vertex 0.000000 0.000000 0.000000
      vertex 1.931852 -0.517638 0.000000
    endloop
  endfacet
  facet normal 0.000000 0.000000 -1.000000
    outer loop
      vertex 1.931852 -0.517638 0.000000
      vertex 0.000000 0.000000 0.000000
      vertex 2.000000 -0.000000 0.000000
    endloop
  endfacet
endsolid poop
